<?xml version="1.0" standalone="no"?>
<!DOCTYPE svg PUBLIC "-//W3C//DTD SVG 20010904//EN"
 "http://www.w3.org/TR/2001/REC-SVG-20010904/DTD/svg10.dtd">
<svg version="1.0" xmlns="http://www.w3.org/2000/svg"
 width="563.000000pt" height="454.000000pt" viewBox="0 0 563.000000 454.000000"
 preserveAspectRatio="xMidYMid meet">

<g transform="translate(0.000000,454.000000) scale(0.100000,-0.100000)"
fill="#000000" stroke="none">
<path d="M815 4514 c-231 -56 -435 -262 -490 -495 -11 -47 -15 -124 -15 -286
l0 -223 -134 0 c-108 0 -138 -3 -150 -15 -24 -24 -30 -81 -14 -123 l14 -37
139 -5 140 -5 0 -195 0 -195 -140 -5 c-137 -5 -140 -6 -152 -30 -16 -32 -16
-78 0 -110 12 -24 15 -25 152 -30 l140 -5 0 -195 0 -195 -140 -5 c-137 -5
-140 -6 -152 -30 -16 -31 -16 -67 -2 -108 l11 -31 141 -3 142 -3 3 -197 2
-198 -134 0 c-148 0 -159 -4 -171 -60 -4 -16 -4 -44 0 -60 12 -56 23 -60 171
-60 l134 0 -2 -197 -3 -198 -142 -3 -141 -3 -11 -31 c-14 -41 -14 -77 2 -108
12 -24 15 -25 152 -30 l140 -5 6 -245 c4 -211 8 -254 26 -307 68 -205 229
-366 438 -440 l80 -28 1410 -3 c1567 -3 1497 -6 1642 64 176 84 314 249 368
439 24 82 36 686 14 669 -8 -6 -71 -53 -141 -103 l-128 -92 0 -147 c0 -81 -5
-174 -10 -207 -26 -162 -153 -298 -312 -335 -27 -6 -540 -10 -1398 -10 -1099
0 -1364 3 -1405 14 -139 37 -240 129 -286 263 -16 49 -19 84 -19 265 l0 208
38 0 c28 0 45 -7 62 -25 100 -106 280 -37 280 108 0 147 -161 219 -269 121
-29 -25 -47 -34 -75 -34 l-36 0 0 200 0 200 45 0 c25 0 45 -4 45 -10 0 -5 17
-21 37 -35 29 -19 50 -25 92 -25 96 0 161 63 161 155 0 95 -53 155 -145 163
-55 4 -130 -24 -142 -53 -3 -10 -20 -15 -49 -15 l-44 0 0 200 0 200 39 0 c28
0 44 -6 53 -19 42 -60 140 -78 210 -39 102 58 105 217 6 278 -62 37 -165 23
-212 -29 -13 -14 -31 -21 -58 -21 l-38 0 0 200 0 200 38 0 c28 0 45 -7 62 -25
56 -60 152 -68 218 -19 43 33 62 73 62 129 0 145 -162 216 -269 119 -29 -25
-47 -34 -75 -34 l-36 0 0 200 0 200 44 0 c30 0 46 -5 50 -15 11 -30 69 -55
126 -55 98 0 160 60 160 155 0 95 -66 164 -158 165 -46 0 -119 -32 -129 -55
-3 -10 -20 -15 -50 -15 l-44 0 3 223 3 223 32 65 c40 80 120 159 200 197 l58
27 1400 3 c1279 2 1403 1 1450 -14 116 -38 214 -133 258 -250 22 -58 22 -70
27 -672 l5 -613 135 98 135 99 0 529 c0 590 0 588 -70 730 -68 138 -174 244
-310 310 -144 69 -40 65 -1616 64 -1207 -1 -1433 -3 -1484 -15z"/>
<path d="M1504 3665 c-48 -91 -91 -165 -95 -165 -4 0 -22 34 -40 75 l-33 75
-69 0 c-51 0 -68 -3 -64 -12 2 -7 49 -106 102 -220 l98 -208 163 307 c90 168
164 308 164 310 0 1 -31 3 -69 3 l-69 0 -88 -165z"/>
<path d="M1790 3275 l0 -65 830 0 830 0 0 65 0 65 -830 0 -830 0 0 -65z"/>
<path d="M3834 2290 l-1229 -890 -148 -391 c-81 -216 -145 -394 -143 -396 2
-3 193 2 425 10 l420 15 53 38 c362 259 2378 1721 2391 1733 16 16 3 37 -255
394 -150 207 -276 377 -279 377 -4 0 -560 -400 -1235 -890z m-961 -1265 c108
-151 200 -281 203 -290 5 -13 -16 -15 -172 -15 l-179 1 -80 111 c-44 61 -84
120 -89 130 -7 13 7 61 50 178 32 88 61 160 64 159 3 0 94 -124 203 -274z"/>
<path d="M1540 2828 c-27 -51 -67 -126 -87 -165 -21 -40 -40 -73 -43 -73 -3 1
-22 37 -42 80 l-37 80 -66 0 c-36 0 -65 -3 -65 -7 0 -9 190 -416 199 -425 4
-4 62 97 131 225 68 127 141 265 163 305 l39 72 -71 0 -70 0 -51 -92z"/>
<path d="M1790 2370 l0 -60 830 0 830 0 0 60 0 60 -830 0 -830 0 0 -60z"/>
<path d="M1504 1855 c-48 -91 -91 -165 -95 -165 -4 0 -22 34 -40 75 l-33 75
-69 0 c-51 0 -68 -3 -64 -12 2 -7 49 -106 102 -220 l98 -208 163 306 c90 169
164 308 164 310 0 2 -31 4 -69 4 l-69 0 -88 -165z"/>
<path d="M1790 1465 l0 -65 263 0 264 0 83 60 c46 33 86 63 89 65 2 3 -154 5
-347 5 l-352 0 0 -65z"/>
</g>
</svg>
